<svg width="22" height="22" viewBox="0 0 22 22" fill="none"
    xmlns="http://www.w3.org/2000/svg">
    <path d="M18.48 0H3.52001C1.57596 0 0 1.57596 0 3.52001V18.48C0 20.424 1.57596 22 3.52001 22H18.48C20.424 22 22 20.424 22 18.48V3.52001C22 1.57596 20.424 0 18.48 0Z" fill="#262626"/>
    <path d="M17.7627 12.9381C18.8596 12.9381 19.7488 12.047 19.7488 10.9479C19.7488 9.84878 18.8596 8.95776 17.7627 8.95776C16.6658 8.95776 15.7766 9.84878 15.7766 10.9479C15.7766 12.047 16.6658 12.9381 17.7627 12.9381Z" fill="white"/>
    <path d="M4.17823 12.9581C5.27512 12.9581 6.16433 12.0671 6.16433 10.9679C6.16433 9.8688 5.27512 8.97778 4.17823 8.97778C3.08134 8.97778 2.19214 9.8688 2.19214 10.9679C2.19214 12.0671 3.08134 12.9581 4.17823 12.9581Z" fill="white"/>
    <path d="M6.12525 8.10188C7.22214 8.10188 8.11135 7.21086 8.11135 6.11173C8.11135 5.0126 7.22214 4.12158 6.12525 4.12158C5.02836 4.12158 4.13916 5.0126 4.13916 6.11173C4.13916 7.21086 5.02836 8.10188 6.12525 8.10188Z" fill="white"/>
    <path d="M10.97 6.15169C12.0669 6.15169 12.9561 5.26067 12.9561 4.16154C12.9561 3.06241 12.0669 2.17139 10.97 2.17139C9.87309 2.17139 8.98389 3.06241 8.98389 4.16154C8.98389 5.26067 9.87309 6.15169 10.97 6.15169Z" fill="white"/>
    <path d="M15.8165 8.10188C16.9134 8.10188 17.8026 7.21086 17.8026 6.11173C17.8026 5.0126 16.9134 4.12158 15.8165 4.12158C14.7196 4.12158 13.8304 5.0126 13.8304 6.11173C13.8304 7.21086 14.7196 8.10188 15.8165 8.10188Z" fill="white"/>
    <path d="M15.8165 17.6549C16.9134 17.6549 17.8026 16.7638 17.8026 15.6647C17.8026 14.5656 16.9134 13.6746 15.8165 13.6746C14.7196 13.6746 13.8304 14.5656 13.8304 15.6647C13.8304 16.7638 14.7196 17.6549 15.8165 17.6549Z" fill="white"/>
    <path d="M10.97 19.7244C12.0669 19.7244 12.9561 18.8334 12.9561 17.7343C12.9561 16.6352 12.0669 15.7441 10.97 15.7441C9.87309 15.7441 8.98389 16.6352 8.98389 17.7343C8.98389 18.8334 9.87309 19.7244 10.97 19.7244Z" fill="white"/>
    <path d="M6.12525 17.6549C7.22214 17.6549 8.11135 16.7638 8.11135 15.6647C8.11135 14.5656 7.22214 13.6746 6.12525 13.6746C5.02836 13.6746 4.13916 14.5656 4.13916 15.6647C4.13916 16.7638 5.02836 17.6549 6.12525 17.6549Z" fill="white"/>
</svg>
