<svg width="16" height="16" viewBox="0 0 16 16" fill="none"
    xmlns="http://www.w3.org/2000/svg">
    <path d="M14.6667 8H10.6667L9.33337 10H6.66671L5.33337 8H1.33337" stroke="#334155" stroke-linecap="round" stroke-linejoin="round"/>
    <path d="M3.63337 3.40675L1.33337 8.00008V12.0001C1.33337 12.3537 1.47385 12.6928 1.7239 12.9429C1.97395 13.1929 2.31309 13.3334 2.66671 13.3334H13.3334C13.687 13.3334 14.0261 13.1929 14.2762 12.9429C14.5262 12.6928 14.6667 12.3537 14.6667 12.0001V8.00008L12.3667 3.40675C12.2563 3.18461 12.0862 2.99766 11.8753 2.86693C11.6645 2.73621 11.4214 2.66688 11.1734 2.66675H4.82671C4.57865 2.66688 4.33555 2.73621 4.12474 2.86693C3.91392 2.99766 3.74376 3.18461 3.63337 3.40675Z" stroke="#334155" stroke-linecap="round" stroke-linejoin="round"/>
</svg>
