<svg width="16" height="16" viewBox="0 0 16 16" fill="none" xmlns="http://www.w3.org/2000/svg">
<path d="M10.6667 14V12.6667C10.6667 11.9594 10.3858 11.2811 9.88566 10.781C9.38556 10.281 8.70728 10 8.00004 10H4.00004C3.2928 10 2.61452 10.281 2.11442 10.781C1.61433 11.2811 1.33337 11.9594 1.33337 12.6667V14" stroke="#334155" stroke-linecap="round" stroke-linejoin="round"/>
<path d="M6.00004 7.33333C7.4728 7.33333 8.66671 6.13943 8.66671 4.66667C8.66671 3.19391 7.4728 2 6.00004 2C4.52728 2 3.33337 3.19391 3.33337 4.66667C3.33337 6.13943 4.52728 7.33333 6.00004 7.33333Z" stroke="#334155" stroke-linecap="round" stroke-linejoin="round"/>
<path d="M14.6666 14V12.6667C14.6662 12.0758 14.4695 11.5019 14.1075 11.0349C13.7455 10.5679 13.2387 10.2344 12.6666 10.0867" stroke="#334155" stroke-linecap="round" stroke-linejoin="round"/>
<path d="M10.6666 2.08667C11.2402 2.23354 11.7487 2.56714 12.1117 3.03488C12.4748 3.50262 12.6719 4.07789 12.6719 4.67C12.6719 5.26212 12.4748 5.83739 12.1117 6.30513C11.7487 6.77287 11.2402 7.10647 10.6666 7.25334" stroke="#334155" stroke-linecap="round" stroke-linejoin="round"/>
</svg>
