<svg width="36" height="32" viewBox="0 0 36 32" fill="none" xmlns="http://www.w3.org/2000/svg">
<path d="M12 9.33337V13.3334H16" stroke="#334155" stroke-linecap="round" stroke-linejoin="round"/>
<path d="M24 16C23.9989 14.8422 23.6629 13.7095 23.0325 12.7384C22.4021 11.7673 21.5041 10.9993 20.447 10.5272C19.3899 10.055 18.2187 9.89873 17.0748 10.0773C15.9308 10.2558 14.863 10.7615 14 11.5334L12 13.3334" stroke="#334155" stroke-linecap="round" stroke-linejoin="round"/>
<path d="M24 22.6666V18.6666H20" stroke="#334155" stroke-linecap="round" stroke-linejoin="round"/>
<path d="M12 16C12.0011 17.1578 12.3371 18.2905 12.9675 19.2616C13.5979 20.2327 14.4959 21.0007 15.553 21.4729C16.6101 21.9451 17.7813 22.1013 18.9252 21.9228C20.0692 21.7442 21.137 21.2385 22 20.4667L24 18.6667" stroke="#334155" stroke-linecap="round" stroke-linejoin="round"/>
</svg>
